@startuml
set namespaceSeparator ::

' <screens>

' <auth>

class "corriol_app::pages::auth::verify_email_page.dart::VerifyEmailPage" {
  +State<VerifyEmailPage> createState()
}

"flutter::src::widgets::framework.dart::StatefulWidget" <|-- "corriol_app::pages::auth::verify_email_page.dart::VerifyEmailPage"

class "corriol_app::pages::auth::verify_email_page.dart::_VerifyEmailPageState" {
  +bool isEmailVerified
  +Timer? timer
  +void initState()
  +void dispose()
  +dynamic signOut()
  -dynamic _checkEmailVerified()
  -dynamic _sendEmailVerification()
  -ScaffoldFeatureController<SnackBar, SnackBarClosedReason>? _statusBar()
  -Widget _button()
  +Widget build()
}

"corriol_app::pages::auth::verify_email_page.dart::_VerifyEmailPageState" o-- "dart::async::Timer"
"flutter::src::widgets::framework.dart::State" <|-- "corriol_app::pages::auth::verify_email_page.dart::_VerifyEmailPageState"

class "corriol_app::pages::auth::auth_page.dart::AuthPage" {
  +State<AuthPage> createState()
}

"flutter::src::widgets::framework.dart::StatefulWidget" <|-- "corriol_app::pages::auth::auth_page.dart::AuthPage"

class "corriol_app::pages::auth::auth_page.dart::_AuthPageState" {
  +void initState()
  +Widget build()
}

"flutter::src::widgets::framework.dart::State" <|-- "corriol_app::pages::auth::auth_page.dart::_AuthPageState"

class "corriol_app::pages::auth::login_register_page.dart::LoginRegisterPage" {
  +State<LoginRegisterPage> createState()
}

"flutter::src::widgets::framework.dart::StatefulWidget" <|-- "corriol_app::pages::auth::login_register_page.dart::LoginRegisterPage"

class "corriol_app::pages::auth::login_register_page.dart::_LoginRegisterPageState" {
  -TextEditingController _controllerEmail
  -TextEditingController _controllerPassword
  -TextEditingController _controllerConfirmPassword
  -TextEditingController _controllerAge
  -TextEditingController _controllerName
  +bool checkBoxLegal
  +bool checkBoxInfo
  +bool checkBoxPrivacy
  +List<bool> isSelected
  +void dispose()
  +dynamic signInWithEmailAndPassword()
  +dynamic registerWithEmailAndPassword()
  -Widget _title()
  -Widget _forgotPassword()
  -Widget _sso()
  -Widget _legalStuff()
  -Widget _login()
  -Widget _register()
  -Widget _optionsTextStyle()
  -Widget _options()
  +Widget build()
}

"corriol_app::pages::auth::login_register_page.dart::_LoginRegisterPageState" o-- "flutter::src::widgets::editable_text.dart::TextEditingController"
"flutter::src::widgets::framework.dart::State" <|-- "corriol_app::pages::auth::login_register_page.dart::_LoginRegisterPageState"

class "corriol_app::pages::auth::forgot_password_page.dart::ForgotPasswordPage" {
  +State<ForgotPasswordPage> createState()
}

"flutter::src::widgets::framework.dart::StatefulWidget" <|-- "corriol_app::pages::auth::forgot_password_page.dart::ForgotPasswordPage"

class "corriol_app::pages::auth::forgot_password_page.dart::_ForgotPasswordPageState" {
  -TextEditingController _controllerEmail
  +void dispose()
  -dynamic _resetPassword()
  -Widget _emailButton()
  +Widget build()
}

"corriol_app::pages::auth::forgot_password_page.dart::_ForgotPasswordPageState" o-- "flutter::src::widgets::editable_text.dart::TextEditingController"
"flutter::src::widgets::framework.dart::State" <|-- "corriol_app::pages::auth::forgot_password_page.dart::_ForgotPasswordPageState"

' <splash>

class "corriol_app::splash.dart::Splash" {
  +State<Splash> createState()
}

"flutter::src::widgets::framework.dart::StatefulWidget" <|-- "corriol_app::splash.dart::Splash"

class "corriol_app::splash.dart::_SplashState" {
  +void initState()
  -dynamic _navigatetohome()
  +Widget build()
}

"flutter::src::widgets::framework.dart::State" <|-- "corriol_app::splash.dart::_SplashState"

' <tree>

class "corriol_app::widget_tree.dart::WidgetTree" {
  +State<WidgetTree> createState()
}

"flutter::src::widgets::framework.dart::StatefulWidget" <|-- "corriol_app::widget_tree.dart::WidgetTree"

class "corriol_app::widget_tree.dart::_WidgetTreeState" {
  +int currentPage
  +dynamic signOut()
  +Widget build()
}

"flutter::src::widgets::framework.dart::State" <|-- "corriol_app::widget_tree.dart::_WidgetTreeState"

' <home>

class "corriol_app::pages::home::record_observation_page.dart::RecordObservationPage" {
  +State<RecordObservationPage> createState()
}

"flutter::src::widgets::framework.dart::StatefulWidget" <|-- "corriol_app::pages::home::record_observation_page.dart::RecordObservationPage"

class "corriol_app::pages::home::record_observation_page.dart::_RecordObservationPageState" {
  +ReportModel fields
  +void initState()
  +Widget build()
  +void saveReport()
}

"corriol_app::pages::home::record_observation_page.dart::_RecordObservationPageState" o-- "corriol_app::models::report_model.dart::ReportModel"
"flutter::src::widgets::framework.dart::State" <|-- "corriol_app::pages::home::record_observation_page.dart::_RecordObservationPageState"

class "corriol_app::pages::home::map_page.dart::MapPage" {
  +LatLng position
  +double zoom
  +State<MapPage> createState()
}

"corriol_app::pages::home::map_page.dart::MapPage" o-- "google_maps_flutter_platform_interface::src::types::location.dart::LatLng"
"flutter::src::widgets::framework.dart::StatefulWidget" <|-- "corriol_app::pages::home::map_page.dart::MapPage"

class "corriol_app::pages::home::map_page.dart::_MapPageState" {
  +UserProvider provider
  +ValueNotifier<String> addressNotifier
  +void initState()
  -dynamic _fetchPositionAndAddress()
  +Widget build()
}

"corriol_app::pages::home::map_page.dart::_MapPageState" o-- "corriol_app::providers::user_provider.dart::UserProvider"
"corriol_app::pages::home::map_page.dart::_MapPageState" o-- "flutter::src::foundation::change_notifier.dart::ValueNotifier<String>"
"flutter::src::widgets::framework.dart::State" <|-- "corriol_app::pages::home::map_page.dart::_MapPageState"

class "corriol_app::pages::home::contact_page.dart::ContactPage" {
  -Uri _url
  -Uri _emailLaunchUri
  +Widget build()
  -dynamic _launchUrl()
}

"flutter::src::widgets::framework.dart::StatelessWidget" <|-- "corriol_app::pages::home::contact_page.dart::ContactPage"

class "corriol_app::pages::home::corriol_page.dart::CorriolPage" {
  +Widget build()
  +PageViewModel myPageViewModel()
}

"flutter::src::widgets::framework.dart::StatelessWidget" <|-- "corriol_app::pages::home::corriol_page.dart::CorriolPage"

class "corriol_app::pages::home::my_records_page.dart::MyRecordsPage" {
  +State<MyRecordsPage> createState()
}

"flutter::src::widgets::framework.dart::StatefulWidget" <|-- "corriol_app::pages::home::my_records_page.dart::MyRecordsPage"

class "corriol_app::pages::home::my_records_page.dart::_MyRecordsPageState" {
  +List<Widget> charts
  +bool isOptionA
  +Widget build()
}

"flutter::src::widgets::framework.dart::State" <|-- "corriol_app::pages::home::my_records_page.dart::_MyRecordsPageState"

class "corriol_app::pages::home_page.dart::HomePage" {
  +Widget build()
}

"flutter::src::widgets::framework.dart::StatelessWidget" <|-- "corriol_app::pages::home_page.dart::HomePage"

' <handyman>

class "corriol_app::pages::handyman::report_map_page.dart::ReportMapPage" {
  +List<ReportModel> reports
  +String title
  +State<ReportMapPage> createState()
}

"flutter::src::widgets::framework.dart::StatefulWidget" <|-- "corriol_app::pages::handyman::report_map_page.dart::ReportMapPage"

class "corriol_app::pages::handyman::report_map_page.dart::_ReportMapPageState" {
  +Set<Marker> getMarkers()
  +Widget build()
}

"flutter::src::widgets::framework.dart::State" <|-- "corriol_app::pages::handyman::report_map_page.dart::_ReportMapPageState"

class "corriol_app::pages::handyman_page.dart::HandymanPage" {
  +State<HandymanPage> createState()
}

"flutter::src::widgets::framework.dart::StatefulWidget" <|-- "corriol_app::pages::handyman_page.dart::HandymanPage"

class "corriol_app::pages::handyman_page.dart::_HandymanPageState" {
  -Widget _generetatAllCsv()
  +List<Widget> generateKeyButton()
  +Widget build()
}

"flutter::src::widgets::framework.dart::State" <|-- "corriol_app::pages::handyman_page.dart::_HandymanPageState"

' <profile>

class "corriol_app::pages::profile_page.dart::ProfilePage" {
  +State<ProfilePage> createState()
}

"flutter::src::widgets::framework.dart::StatefulWidget" <|-- "corriol_app::pages::profile_page.dart::ProfilePage"

class "corriol_app::pages::profile_page.dart::_ProfilePageState" {
  +dynamic user
  +UserProvider provider
  +void initState()
  +dynamic signOut()
  +Widget build()
  -Widget _profileUserOptions()
  -void _openLanguageMenu()
  -Widget _profileUserOptionsData()
  -Widget _profileUserOptionsGps()
  -Widget _profileAppInfo()
}

"corriol_app::pages::profile_page.dart::_ProfilePageState" o-- "corriol_app::providers::user_provider.dart::UserProvider"
"flutter::src::widgets::framework.dart::State" <|-- "corriol_app::pages::profile_page.dart::_ProfilePageState"

@enduml